<svg id="svg" version="1.1" xmlns="http://www.w3.org/2000/svg" xmlns:xlink="http://www.w3.org/1999/xlink" width="400" height="283.8095238095238" viewBox="0, 0, 400,283.8095238095238"><g id="svgg"><path id="path0" d="M194.669 69.735 C 192.101 74.173,190.000 77.842,190.000 77.890 C 190.000 77.937,194.273 77.976,199.495 77.976 L 208.990 77.976 208.364 76.887 C 208.020 76.289,205.917 72.622,203.690 68.739 C 201.464 64.856,199.574 61.677,199.490 61.673 C 199.406 61.670,197.237 65.297,194.669 69.735 M190.476 93.014 C 189.887 93.054,187.530 93.201,185.238 93.341 C 182.622 93.500,180.968 93.701,180.792 93.880 C 180.639 94.038,168.032 115.729,152.778 142.083 L 125.043 190.000 199.188 190.000 C 239.968 190.000,273.328 189.920,273.322 189.821 C 273.262 188.822,218.098 93.929,217.487 93.773 C 215.150 93.177,195.974 92.638,190.476 93.014 M114.760 207.754 C 111.684 213.066,109.132 217.566,109.090 217.754 C 109.023 218.050,120.164 218.095,192.801 218.095 C 238.885 218.095,279.511 218.166,283.081 218.253 C 289.008 218.397,289.566 218.377,289.489 218.023 C 289.443 217.810,286.887 213.243,283.810 207.875 L 278.214 198.115 199.284 198.105 L 120.353 198.095 114.760 207.754 " stroke="none" fill="#ec3434" fill-rule="evenodd"></path><path id="path1" d="M57.540 0.159 C 57.452 0.246,57.375 29.684,57.367 65.575 L 57.354 130.833 55.775 132.143 C 53.055 134.400,40.461 147.091,37.111 150.952 C 26.530 163.145,18.166 174.953,10.884 187.976 L 9.819 189.881 4.909 189.945 L 0.000 190.010 0.000 194.052 L 0.000 198.095 2.738 198.095 C 4.244 198.095,5.476 198.129,5.476 198.170 C 5.476 198.212,4.673 199.949,3.690 202.032 C 2.708 204.114,1.906 205.929,1.908 206.064 C 1.912 206.296,14.869 212.147,15.363 212.139 C 15.491 212.137,17.139 208.976,19.027 205.115 L 22.458 198.095 39.919 198.095 L 57.380 198.095 57.440 240.893 L 57.500 283.690 199.286 283.690 L 341.071 283.690 341.132 240.893 L 341.192 198.095 358.172 198.095 L 375.152 198.095 378.316 204.524 C 380.056 208.060,381.525 210.952,381.580 210.952 C 381.678 210.952,395.055 204.982,395.185 204.881 C 395.221 204.852,394.551 203.354,393.697 201.551 C 392.842 199.749,392.143 198.234,392.143 198.185 C 392.143 198.135,393.911 198.095,396.071 198.095 L 400.000 198.095 400.000 194.052 L 400.000 190.008 393.900 189.944 L 387.800 189.881 386.733 187.976 C 375.743 168.367,360.349 148.945,344.227 134.348 L 341.191 131.600 341.131 65.859 L 341.071 0.119 199.385 0.059 C 121.458 0.026,57.627 0.071,57.540 0.159 M326.905 67.166 L 326.905 120.046 325.774 119.192 C 296.793 97.322,258.214 82.650,219.577 78.806 C 212.072 78.059,191.029 77.780,183.571 78.328 C 143.290 81.288,105.326 95.025,73.036 118.324 L 71.667 119.312 71.667 66.799 L 71.667 14.286 199.286 14.286 L 326.905 14.286 326.905 67.166 M211.548 93.104 C 213.643 93.229,216.482 93.489,217.857 93.683 C 219.232 93.877,222.125 94.258,224.286 94.529 C 260.548 99.085,294.375 113.427,323.798 136.721 L 326.887 139.167 326.896 164.544 L 326.905 189.921 286.726 190.080 C 264.628 190.167,225.280 190.238,199.286 190.238 C 173.292 190.238,133.943 190.167,111.845 190.080 L 71.667 189.921 71.667 164.168 L 71.667 138.414 74.226 136.386 C 104.441 112.444,138.517 98.510,178.095 93.915 C 179.863 93.710,182.189 93.440,183.264 93.315 C 188.854 92.668,202.490 92.566,211.548 93.104 M57.381 170.833 L 57.381 190.000 42.381 190.000 C 34.131 190.000,27.381 189.934,27.381 189.853 C 27.381 189.096,35.095 177.652,39.479 171.905 C 44.721 165.033,56.451 151.667,57.239 151.667 C 57.317 151.667,57.381 160.292,57.381 170.833 M348.836 160.595 C 355.715 168.414,361.200 175.627,366.581 183.929 C 369.497 188.428,370.238 189.627,370.238 189.850 C 370.238 189.932,363.702 190.000,355.714 190.000 L 341.190 190.000 341.190 171.190 L 341.190 152.379 343.652 154.940 C 345.005 156.348,347.338 158.893,348.836 160.595 M290.298 198.016 L 326.905 198.174 326.905 233.849 L 326.905 269.524 199.286 269.524 L 71.667 269.524 71.667 233.811 L 71.667 198.097 96.131 198.036 C 157.124 197.882,256.949 197.871,290.298 198.016 " stroke="none" fill="#fcfbfb" fill-rule="evenodd"></path><path id="path2" d="M193.869 78.028 C 194.229 78.082,194.818 78.082,195.179 78.028 C 195.539 77.973,195.244 77.928,194.524 77.928 C 193.804 77.928,193.509 77.973,193.869 78.028 M202.202 78.028 C 202.563 78.082,203.152 78.082,203.512 78.028 C 203.872 77.973,203.577 77.928,202.857 77.928 C 202.137 77.928,201.842 77.973,202.202 78.028 M198.393 92.783 C 198.622 92.843,198.997 92.843,199.226 92.783 C 199.455 92.723,199.268 92.674,198.810 92.674 C 198.351 92.674,198.164 92.723,198.393 92.783 M159.940 198.036 C 181.580 198.069,216.991 198.069,238.631 198.036 C 260.271 198.002,242.565 197.975,199.286 197.975 C 156.006 197.975,138.301 198.002,159.940 198.036 " stroke="none" fill="#f49ca4" fill-rule="evenodd"></path><path id="path3" d="M197.212 78.034 C 198.102 78.080,199.495 78.080,200.308 78.033 C 201.121 77.987,200.393 77.949,198.690 77.950 C 196.988 77.950,196.323 77.988,197.212 78.034 M195.893 92.791 C 196.318 92.844,197.015 92.844,197.440 92.791 C 197.866 92.738,197.518 92.695,196.667 92.695 C 195.815 92.695,195.467 92.738,195.893 92.791 M200.179 92.791 C 200.604 92.844,201.301 92.844,201.726 92.791 C 202.152 92.738,201.804 92.695,200.952 92.695 C 200.101 92.695,199.753 92.738,200.179 92.791 M55.818 152.917 L 55.119 153.690 55.893 152.991 C 56.614 152.339,56.776 152.143,56.592 152.143 C 56.551 152.143,56.203 152.491,55.818 152.917 M162.202 190.179 C 182.598 190.212,215.973 190.212,236.369 190.179 C 256.765 190.145,240.077 190.118,199.286 190.118 C 158.494 190.118,141.807 190.145,162.202 190.179 " stroke="none" fill="#fcd4d4" fill-rule="evenodd"></path><path id="path4" d="M191.131 78.029 C 191.557 78.082,192.253 78.082,192.679 78.029 C 193.104 77.977,192.756 77.933,191.905 77.933 C 191.054 77.933,190.705 77.977,191.131 78.029 M204.697 78.029 C 205.120 78.082,205.870 78.082,206.364 78.031 C 206.858 77.979,206.512 77.936,205.595 77.935 C 204.679 77.934,204.274 77.976,204.697 78.029 M190.298 93.021 C 190.527 93.081,190.902 93.081,191.131 93.021 C 191.360 92.961,191.173 92.912,190.714 92.912 C 190.256 92.912,190.068 92.961,190.298 93.021 " stroke="none" fill="#f4868c" fill-rule="evenodd"></path></g></svg>